
<svg xmlns="http://www.w3.org/2000/svg" version="1.1" xmlns:xlink="http://www.w3.org/1999/xlink" preserveAspectRatio="none" x="0px" y="0px" width="450px" height="300px" viewBox="0 0 450 300">
<defs>
<g id="Layer0_0_FILL">
<path fill="#FFFFFF" stroke="none" d="
M 294 139
L 294 130 282 130 282 132 280 132 280 141 292 141 292 139 294 139
M 293 131
L 293 138 283 138 283 131 293 131
M 291 139
L 291 140 281 140 281 133 282 133 282 139 291 139 Z"/>

<path fill="#000000" stroke="none" d="
M 389 20
L 388 20 388 21 387 21 387 22 386 22 386 23 385 23 385 24 384 24 384 23 383 23 383 22 382 22 382 21 381 21 381 20 380 20 380 22 381 22 381 23 382 23 382 24 383 24 383 25 384 25 384 26 385 26 385 25 386 25 386 24 387 24 387 23 388 23 388 22 389 22 389 20 Z"/>
</g>

<g id="Layer0_1_FILL">
<path fill="#000000" stroke="none" d="
M 11 61.05
L 24 61.05 11 48 11 61.05
M 13.8 32.15
Q 17.65 36 23 36
L 23.05 36 23.05 10 23 10
Q 17.65 10 13.8 13.8 10 17.65 10 23 10 28.35 13.8 32.15
M 46.05 48
Q 46.05 42.65 42.25 38.8 38.4 35 33.05 35
L 33 35 33 61 33.05 61
Q 38.4 61 42.25 57.15 46.05 53.35 46.05 48
M 69.6 42
L 60.1 42 53.5 61 63 61 69.6 42
M 45 23.05
L 45 10 32 10 45 23.05
M 107 52
L 107 61 140 61 140 52 107 52
M 87.9 61
L 97.4 61 79.8 10 70.3 10 87.9 61
M 116 10
L 107 10 107 42 116 42 116 10
M 163 61
L 163 29.05 154 29.05 154 61 163 61
M 177 19
L 177 10 140 10 140 19 177 19 Z"/>
</g>

<g id="Layer0_2_FILL">
<path fill="#fff" stroke="none" d="
M 112 153
L 106 153 106 174 112 174 112 153
M 121 140
L 97 140 97 146 121 146 121 140
M 75 140
L 75 161 81 161 81 140 75 140
M 75 168
L 75 174 96 174 96 168 75 168
M 45.3 174
L 49.85 161 43.5 161 39 174 45.3 174
M 11 174
L 19 174 11 166 11 174
M 31.45 171.4
Q 34 168.9 34 165.3 34 161.75 31.45 159.2 28.75 156.65 25.05 156.65
L 25 156.65 25 174 25.05 174
Q 28.75 174 31.45 171.4
M 33 148
L 33 140 25 140 33 148
M 18.95 140
Q 15.25 140 12.65 142.55 10 145.1 10 148.65 10 152.25 12.65 154.75 15.25 157.35 18.95 157.35
L 19 157.35 19 140 18.95 140
M 56.5 140
L 50.15 140 61.9 174 68.2 174 56.5 140 Z"/>
</g>

<g id="Layer0_3_FILL">
<path fill="#000000" stroke="none" d="
M 10 210.85
L 10 217.85 17 217.85 10 210.85
M 33.95 218
L 39.15 218 42.95 207 37.75 207 33.95 218
M 28 205.8
Q 25.95 203.7 23.05 203.7
L 23 203.7 23 218 23.05 218
Q 25.95 218 28 215.85 30 213.8 30 210.85 30 207.9 28 205.8
M 81 218
L 81 213 63 213 63 218 81 218
M 94 200
L 89 200 89 218 94 218 94 200
M 102 190
L 81 190 81 195 102 195 102 190
M 68 190
L 63 190 63 208 68 208 68 190
M 48.35 190
L 43.15 190 52.8 218 58 218 48.35 190
M 30 197
L 30 190 23 190 30 197
M 10.3 194.95
Q 10 195.9634765625 10 197.1 10 200.1 12.05 202.15 14.1 204.3 16.95 204.3
L 17 204.3 17 190 16.95 190
Q 14.1 190 12.05 192.1 10.8033203125 193.3771484375 10.3 194.95 Z"/>
</g>

<g id="Layer0_4_FILL">
<path fill="#000000" stroke="none" d="
M 226 21
L 226 20 224 20 224 21 223 21 223 22 222 22 222 23 221 23 221 24 220 24 220 25 221 25 221 26 222 26 222 27 223 27 223 28 224 28 224 29 226 29 226 28 225 28 225 27 224 27 224 26 223 26 223 25 222 25 222 24 223 24 223 23 224 23 224 22 225 22 225 21 226 21 Z"/>
</g>

<g id="Layer0_5_FILL">
<path fill="#000000" stroke="none" d="
M 266 24
L 265 24 265 23 264 23 264 22 263 22 263 21 262 21 262 20 260 20 260 21 261 21 261 22 262 22 262 23 263 23 263 24 264 24 264 25 263 25 263 26 262 26 262 27 261 27 261 28 260 28 260 29 262 29 262 28 263 28 263 27 264 27 264 26 265 26 265 25 266 25 266 24 Z"/>
</g>

<g id="Layer0_6_FILL">
<path fill="#FFFFFF" stroke="none" d="
M 225 61
L 226 61 226 60 224 60 224 61 223 61 223 62 222 62 222 63 221 63 221 64 220 64 220 65 221 65 221 66 222 66 222 67 223 67 223 68 224 68 224 69 226 69 226 68 225 68 225 67 224 67 224 66 223 66 223 65 222 65 222 64 223 64 223 63 224 63 224 62 225 62 225 61 Z"/>
</g>

<g id="Layer0_7_FILL">
<path fill="#FFFFFF" stroke="none" d="
M 265 64
L 265 63 264 63 264 62 263 62 263 61 262 61 262 60 260 60 260 61 261 61 261 62 262 62 262 63 263 63 263 64 264 64 264 65 263 65 263 66 262 66 262 67 261 67 261 68 260 68 260 69 262 69 262 68 263 68 263 67 264 67 264 66 265 66 265 65 266 65 266 64 265 64 Z"/>
</g>

<g id="Layer0_8_FILL">
<path fill="#000000" stroke="none" d="
M 308 21
L 307 21 307 22 306 22 306 23 305 23 305 24 304 24 304 23 303 23 303 22 302 22 302 21 301 21 301 20 300 20 300 22 301 22 301 23 302 23 302 24 303 24 303 25 304 25 304 26 305 26 305 25 306 25 306 24 307 24 307 23 308 23 308 22 309 22 309 20 308 20 308 21 Z"/>
</g>

<g id="Layer0_9_FILL">
<path fill="#000000" stroke="none" d="
M 346 21
L 345 21 345 20 344 20 344 21 343 21 343 22 342 22 342 23 341 23 341 24 340 24 340 26 341 26 341 25 342 25 342 24 343 24 343 23 344 23 344 22 345 22 345 23 346 23 346 24 347 24 347 25 348 25 348 26 349 26 349 24 348 24 348 23 347 23 347 22 346 22 346 21 Z"/>
</g>

<g id="Layer0_10_FILL">
<path fill="#FFFFFF" stroke="none" d="
M 309 60
L 308 60 308 61 307 61 307 62 306 62 306 63 305 63 305 64 304 64 304 63 303 63 303 62 302 62 302 61 301 61 301 60 300 60 300 62 301 62 301 63 302 63 302 64 303 64 303 65 304 65 304 66 305 66 305 65 306 65 306 64 307 64 307 63 308 63 308 62 309 62 309 60 Z"/>
</g>

<g id="Layer0_11_FILL">
<path fill="#FFFFFF" stroke="none" d="
M 346 61
L 345 61 345 60 344 60 344 61 343 61 343 62 342 62 342 63 341 63 341 64 340 64 340 66 341 66 341 65 342 65 342 64 343 64 343 63 344 63 344 62 345 62 345 63 346 63 346 64 347 64 347 65 348 65 348 66 349 66 349 64 348 64 348 63 347 63 347 62 346 62 346 61 Z"/>
</g>

<g id="Layer0_12_FILL">
<path fill="#000000" stroke="none" d="
M 389 28
L 380 28 380 29 389 29 389 28 Z"/>
</g>

<g id="Layer0_13_FILL">
<path fill="#FFFFFF" stroke="none" d="
M 389 69
L 389 68 380 68 380 69 389 69
M 389 60
L 388 60 388 61 387 61 387 62 386 62 386 63 385 63 385 64 384 64 384 63 383 63 383 62 382 62 382 61 381 61 381 60 380 60 380 62 381 62 381 63 382 63 382 64 383 64 383 65 384 65 384 66 385 66 385 65 386 65 386 64 387 64 387 63 388 63 388 62 389 62 389 60 Z"/>
</g>

<g id="Layer0_14_FILL">
<path fill="#000000" stroke="none" d="
M 232 101
L 232 100 230 100 230 101 229 101 229 102 228 102 228 103 227 103 227 104 226 104 226 105 225 105 225 106 224 106 224 105 223 105 223 104 222 104 222 103 220 103 220 104 221 104 221 105 222 105 222 106 223 106 223 107 224 107 224 108 225 108 225 107 226 107 226 106 227 106 227 105 228 105 228 104 229 104 229 103 230 103 230 102 231 102 231 101 232 101 Z"/>
</g>

<g id="Layer0_15_FILL">
<path fill="#000000" stroke="none" d="
M 227 141
L 231 141 231 137 227 137 227 141
M 227 130
L 227 134 231 134 231 130 227 130
M 220 130
L 220 134 224 134 224 130 220 130
M 220 137
L 220 141 224 141 224 137 220 137 Z"/>
</g>

<g id="Layer0_16_FILL">
<path fill="#FFFFFF" stroke="none" d="
M 261 137
L 257 137 257 141 261 141 261 137
M 250 137
L 250 141 254 141 254 137 250 137
M 254 134
L 254 130 250 130 250 134 254 134
M 261 130
L 257 130 257 134 261 134 261 130 Z"/>
</g>

<g id="Layer0_17_FILL">
<path fill="#FFFFFF" stroke="none" d="
M 11 110
L 11 120 21 120 11 110
M 28.05 119.95
Q 32.15 119.95 35.1 117 38 114.05 38 109.95 38 105.85 35.1 102.9 32.15 99.95 28.05 99.95
L 28 99.95 28 119.95 28.05 119.95
M 37 90
L 37 80 27 80 37 90
M 10 90
Q 10 94.15 12.9 97.1 15.9 100 19.95 100
L 20 100 20 80 19.95 80
Q 15.9 80 12.9 82.9 10 85.9 10 90 Z"/>
</g>

<g id="Layer0_18_FILL">
<path fill="#000000" stroke="none" d="
M 44 120
L 51.45 120 56.65 105 49.2 105 44 120
M 64.7 80
L 57.25 80 71 120 78.45 120 64.7 80 Z"/>
</g>

<g id="Layer0_19_FILL">
<path fill="#000000" stroke="none" d="
M 112 113
L 86 113 86 120 112 120 112 113
M 93 80
L 86 80 86 105 93 105 93 80 Z"/>
</g>

<g id="Layer0_20_FILL">
<path fill="#000000" stroke="none" d="
M 130 95
L 123 95 123 120 130 120 130 95
M 112 80
L 112 87 141 87 141 80 112 80 Z"/>
</g>

<g id="Layer0_21_FILL">
<path fill="#000000" stroke="none" d="
M 247.75 161.65
Q 247.3 162.45 247.3 163.45 247.3 164.4 247.65 165.15 248.05 165.9 248.8 166.45 247.95 166.45 247.25 165.9
L 247.25 165.95
Q 247.25 167.25 248 168.3 248.8 169.25 250 169.4 249.55 169.55 249.15 169.55 248.7 169.55 248.45 169.5 248.7 170.65 249.7 171.2 250.6 171.95 251.65 171.95 250.7 172.75 249.7 173.05 248.95 173.45 248.2 173.5 247.8 173.55 247.3 173.55 246.9 173.55 246.6 173.5 247.75 174.25 249.05 174.6 250.4 175 251.85 175 254.1 175 256 174.15 256.7 173.85 257.25 173.5 258.25 172.75 259.15 171.75 260.05 170.75 260.6 169.45 260.85 169 261 168.55 261.7 166.75 261.7 164.95 261.7 164.65 261.7 164.5 262 164.25 262.25 163.95 262.9 163.4 263.4 162.7 262.85 162.95 262.25 163.05 261.85 163.15 261.45 163.15 261.95 162.95 262.25 162.45
L 262.3 162.4
Q 262.75 161.85 262.9 161.3 262.6 161.55 262.25 161.65 261.5 162 260.75 162.15 260.75 162.05 260.6 162 260.15 161.6 259.6 161.3 258.9 161 258.15 161 256.75 161 255.75 162.05 254.7 163.1 254.7 164.55 254.7 164.95 254.8 165.45 252.75 165.25 250.8 164.25 249 163.35 247.75 161.65 Z"/>
</g>

<g id="Layer0_22_FILL">
<path fill="#000000" stroke="none" d="
M 225 164.05
Q 225.05 163.05 226.1 163
L 228 163 228 160 224.9 160
Q 222.1 160.1 222 162.75
L 222 165 220 165 220 168 222 168 222 176 225 176 225 168 227.4 168 227.85 165 225 165 225 164.05 Z"/>
</g>

<g id="Layer0_23_FILL">
<path fill="#1A171C" stroke="none" d="
M 290.65 166.85
Q 290.95 165.7 290.95 165.25 290.95 164.6 290.65 164.2 290.3 163.7 289.65 163.7 288.9 163.7 288.3 164.5 287.75 165.2 287.75 166.3 287.75 166.9 287.9 167.4 288 167.7 288.1 167.85
L 286.85 173.15
Q 286.6 174.1 286.7 175.3 286.85 176.35 287.8 175.8 288.5 174.65 288.8 173.7 288.9 173.45 289.2 172.2
L 289.5 171.05
Q 289.7 171.55 290.4 171.9 291.1 172.25 291.85 172.25 294.1 172.25 295.6 170.35 297 168.5 297 165.55 297 164.5 296.55 163.5 296.1 162.5 295.3 161.7 293.65 160 290.9 160 287.7 160 285.75 162 284.9 162.85 284.5 163.95 284 165 284 166.1 284 167.4 284.5 168.35 285 169.4 286 169.8 286.15 169.9 286.3 169.8 286.4 169.7 286.5 169.55
L 286.7 168.75
Q 286.7 168.6 286.7 168.5 286.7 168.4 286.55 168.25 285.9 167.5 285.9 166.3 285.9 164.4 287.15 163.05 288.5 161.65 290.7 161.65 292.5 161.65 293.65 162.7 294.7 163.7 294.7 165.4 294.7 167.5 293.9 169.05 293 170.5 291.65 170.5 290.9 170.5 290.4 170.05 289.9 169.45 290.1 168.7 290.15 168.5 290.65 166.85 Z"/>
</g>

<g id="Layer0_24_FILL">
<path fill="#FFFFFF" stroke="none" d="
M 21 280
L 11 270 11 280 21 280
M 38 269.95
Q 38 265.85 35.1 262.9 32.15 259.95 28.05 259.95
L 28 259.95 28 279.95 28.05 279.95
Q 32.15 279.95 35.1 277 38 274.05 38 269.95
M 19.95 240
Q 15.9 240 12.9 242.9 10 245.9 10 250 10 254.15 12.9 257.1 15.9 260 19.95 260
L 20 260 20 240 19.95 240
M 37 240
L 27 240 37 250 37 240 Z"/>
</g>

<g id="Layer0_25_FILL">
<path fill="#FFFFFF" stroke="none" d="
M 225 204.05
Q 225.05 203.05 226.1 203
L 228 203 228 200 224.9 200
Q 222.1 200.1 222 202.75
L 222 205 220 205 220 208 222 208 222 216 225 216 225 208 227.4 208 227.85 205 225 205 225 204.05 Z"/>
</g>

<g id="Layer0_26_FILL">
<path fill="#FFFFFF" stroke="none" d="
M 262.25 201.65
Q 261.5 202 260.75 202.15 260.75 202.05 260.6 202 260.15 201.6 259.6 201.3 258.9 201 258.15 201 256.75 201 255.75 202.05 254.7 203.1 254.7 204.55 254.7 204.95 254.8 205.45 252.75 205.25 250.8 204.25 249 203.35 247.75 201.65 247.3 202.45 247.3 203.45 247.3 204.4 247.65 205.15 248.05 205.9 248.8 206.45 247.95 206.45 247.25 205.9
L 247.25 205.95
Q 247.25 207.25 248 208.3 248.8 209.25 250 209.4 249.55 209.55 249.15 209.55 248.7 209.55 248.45 209.5 248.7 210.65 249.7 211.2 250.6 211.95 251.65 211.95 250.7 212.75 249.7 213.05 248.95 213.45 248.2 213.5 247.8 213.55 247.3 213.55 246.9 213.55 246.6 213.5 247.75 214.25 249.05 214.6 250.4 215 251.85 215 254.1 215 256 214.15 256.7 213.85 257.25 213.5 258.25 212.75 259.15 211.75 260.05 210.75 260.6 209.45 260.85 209 261 208.55 261.7 206.75 261.7 204.95 261.7 204.65 261.7 204.5 262 204.25 262.25 203.95 262.9 203.4 263.4 202.7 262.85 202.95 262.25 203.05 261.85 203.15 261.45 203.15 261.95 202.95 262.25 202.45
L 262.3 202.4
Q 262.75 201.85 262.9 201.3 262.6 201.55 262.25 201.65 Z"/>
</g>

<g id="Layer0_27_FILL">
<path fill="#FFFFFF" stroke="none" d="
M 293.65 202.7
Q 294.7 203.7 294.7 205.4 294.7 207.5 293.9 209.05 293 210.5 291.65 210.5 290.9 210.5 290.4 210.05 289.9 209.45 290.1 208.7 290.15 208.5 290.65 206.85 290.95 205.7 290.95 205.25 290.95 204.6 290.65 204.2 290.3 203.7 289.65 203.7 288.9 203.7 288.3 204.5 287.75 205.2 287.75 206.3 287.75 206.9 287.9 207.4 288 207.7 288.1 207.85
L 286.85 213.15
Q 286.6 214.1 286.7 215.3 286.85 216.35 287.8 215.8 288.5 214.65 288.8 213.7 288.9 213.45 289.2 212.2
L 289.5 211.05
Q 289.7 211.55 290.4 211.9 291.1 212.25 291.85 212.25 294.1 212.25 295.6 210.35 297 208.5 297 205.55 297 204.5 296.55 203.5 296.1 202.5 295.3 201.7 293.65 200 290.9 200 287.7 200 285.75 202 284.9 202.85 284.5 203.95 284 205 284 206.1 284 207.4 284.5 208.35 285 209.4 286 209.8 286.15 209.9 286.3 209.8 286.4 209.7 286.5 209.55
L 286.7 208.75
Q 286.7 208.6 286.7 208.5 286.7 208.4 286.55 208.25 285.9 207.5 285.9 206.3 285.9 204.4 287.15 203.05 288.5 201.65 290.7 201.65 292.5 201.65 293.65 202.7 Z"/>
</g>
</defs>

<g transform="matrix( 1, 0, 0, 1, 0,0) ">
<use xlink:href="#Layer0_0_FILL"/>
</g>

<g transform="matrix( 1, 0, 0, 1, 0,0) ">
<use xlink:href="#Layer0_1_FILL"/>
</g>

<g transform="matrix( 1, 0, 0, 1, 0,0) ">
<use xlink:href="#Layer0_2_FILL"/>
</g>

<g transform="matrix( 1, 0, 0, 1, 0,0) ">
<use xlink:href="#Layer0_3_FILL"/>
</g>

<g transform="matrix( 1, 0, 0, 1, 0,0) ">
<use xlink:href="#Layer0_4_FILL"/>
</g>

<g transform="matrix( 1, 0, 0, 1, 0,0) ">
<use xlink:href="#Layer0_5_FILL"/>
</g>

<g transform="matrix( 1, 0, 0, 1, 0,0) ">
<use xlink:href="#Layer0_6_FILL"/>
</g>

<g transform="matrix( 1, 0, 0, 1, 0,0) ">
<use xlink:href="#Layer0_7_FILL"/>
</g>

<g transform="matrix( 1, 0, 0, 1, 0,0) ">
<use xlink:href="#Layer0_8_FILL"/>
</g>

<g transform="matrix( 1, 0, 0, 1, 0,0) ">
<use xlink:href="#Layer0_9_FILL"/>
</g>

<g transform="matrix( 1, 0, 0, 1, 0,0) ">
<use xlink:href="#Layer0_10_FILL"/>
</g>

<g transform="matrix( 1, 0, 0, 1, 0,0) ">
<use xlink:href="#Layer0_11_FILL"/>
</g>

<g transform="matrix( 1, 0, 0, 1, 0,0) ">
<use xlink:href="#Layer0_12_FILL"/>
</g>

<g transform="matrix( 1, 0, 0, 1, 0,0) ">
<use xlink:href="#Layer0_13_FILL"/>
</g>

<g transform="matrix( 1, 0, 0, 1, 0,0) ">
<use xlink:href="#Layer0_14_FILL"/>
</g>

<g transform="matrix( 1, 0, 0, 1, 0,0) ">
<use xlink:href="#Layer0_15_FILL"/>
</g>

<g transform="matrix( 1, 0, 0, 1, 0,0) ">
<use xlink:href="#Layer0_16_FILL"/>
</g>

<g transform="matrix( 1, 0, 0, 1, 0,0) ">
<use xlink:href="#Layer0_17_FILL"/>
</g>

<g transform="matrix( 1, 0, 0, 1, 0,0) ">
<use xlink:href="#Layer0_18_FILL"/>
</g>

<g transform="matrix( 1, 0, 0, 1, 0,0) ">
<use xlink:href="#Layer0_19_FILL"/>
</g>

<g transform="matrix( 1, 0, 0, 1, 0,0) ">
<use xlink:href="#Layer0_20_FILL"/>
</g>

<g transform="matrix( 1, 0, 0, 1, 0,0) ">
<use xlink:href="#Layer0_21_FILL"/>
</g>

<g transform="matrix( 1, 0, 0, 1, 0,0) ">
<use xlink:href="#Layer0_22_FILL"/>
</g>

<g transform="matrix( 1, 0, 0, 1, 0,0) ">
<use xlink:href="#Layer0_23_FILL"/>
</g>

<g transform="matrix( 1, 0, 0, 1, 0,0) ">
<use xlink:href="#Layer0_24_FILL"/>
</g>

<g transform="matrix( 1, 0, 0, 1, 0,0) ">
<use xlink:href="#Layer0_25_FILL"/>
</g>

<g transform="matrix( 1, 0, 0, 1, 0,0) ">
<use xlink:href="#Layer0_26_FILL"/>
</g>

<g transform="matrix( 1, 0, 0, 1, 0,0) ">
<use xlink:href="#Layer0_27_FILL"/>
</g>
</svg>
